<?xml version="1.0" standalone="no"?>
<!DOCTYPE svg PUBLIC "-//W3C//DTD SVG 20010904//EN"
 "http://www.w3.org/TR/2001/REC-SVG-20010904/DTD/svg10.dtd">
<svg version="1.0" xmlns="http://www.w3.org/2000/svg"
 width="700.000000pt" height="700.000000pt" viewBox="0 0 700.000000 700.000000"
 preserveAspectRatio="xMidYMid meet">
<metadata>
Created by potrace 1.14, written by Peter Selinger 2001-2017
</metadata>
<g transform="translate(0.000000,700.000000) scale(0.100000,-0.100000)"
fill="#000000" stroke="none">
<path d="M3431 6904 c-10 -13 -23 -43 -29 -66 -7 -25 -24 -56 -42 -73 -17 -16
-35 -46 -41 -67 -5 -21 -23 -50 -38 -64 -17 -15 -34 -45 -42 -72 -8 -29 -25
-59 -46 -78 -23 -22 -39 -48 -48 -84 -9 -34 -25 -63 -43 -80 -16 -14 -37 -50
-46 -78 -20 -60 -20 -60 -80 -71 -66 -12 -76 -1 -88 98 -5 46 -18 102 -28 125
l-18 41 -13 -30 c-7 -17 -13 -69 -14 -120 0 -77 3 -96 24 -130 21 -36 23 -50
22 -148 l-2 -107 -41 -55 c-33 -45 -47 -56 -82 -62 l-41 -9 -5 -76 c-3 -43
-10 -82 -16 -88 -14 -14 -87 -40 -96 -34 -4 2 -16 30 -28 62 -12 31 -30 66
-40 77 -22 25 -45 71 -54 109 -4 16 -20 41 -36 56 -17 16 -35 49 -45 85 -16
55 -39 87 -78 110 -10 6 -24 34 -32 64 -18 68 -31 83 -51 56 -22 -29 -10 -112
21 -145 17 -19 25 -44 33 -104 7 -53 17 -85 30 -100 29 -31 38 -53 56 -136 11
-44 28 -89 43 -109 17 -22 32 -63 43 -115 9 -45 20 -88 24 -97 5 -13 -1 -19
-25 -28 -18 -6 -33 -11 -35 -11 -2 0 -13 18 -24 41 -12 22 -34 48 -50 57 -17
10 -43 42 -60 75 -17 31 -35 57 -39 57 -16 0 -29 -26 -36 -71 -6 -41 -4 -48
28 -86 42 -50 56 -123 32 -160 -9 -13 -19 -23 -23 -23 -6 0 -42 40 -167 188
-25 29 -45 57 -45 62 0 5 -18 21 -40 35 -22 14 -40 32 -40 41 0 8 -15 30 -32
47 -18 18 -49 58 -70 90 -21 31 -44 57 -53 57 -8 0 -26 18 -40 40 -30 47 -51
59 -70 39 -20 -20 0 -95 37 -137 15 -18 28 -42 28 -53 0 -12 16 -37 35 -56 19
-19 44 -56 55 -81 12 -26 32 -58 44 -72 13 -14 31 -41 41 -60 9 -19 30 -48 45
-65 15 -16 38 -56 50 -88 13 -31 34 -64 47 -72 24 -16 29 -40 14 -64 -13 -20
-63 2 -116 49 -60 54 -150 120 -163 120 -6 0 -19 -11 -28 -25 -18 -28 -12 -41
33 -78 12 -9 27 -33 33 -52 6 -19 22 -43 34 -53 13 -10 33 -39 44 -65 l21 -48
-25 -11 c-22 -10 -28 -8 -58 25 -19 20 -41 37 -49 37 -9 0 -31 15 -49 33 -18
18 -57 48 -85 66 -29 18 -53 37 -53 42 0 5 -21 23 -47 39 -26 17 -51 37 -56
45 -4 8 -27 25 -50 36 -23 12 -55 37 -70 55 -16 19 -35 34 -42 34 -7 0 -27 12
-44 26 -36 30 -121 75 -132 69 -3 -3 -9 -16 -11 -30 -5 -26 6 -40 45 -60 12
-6 23 -19 25 -30 3 -10 105 -118 228 -240 123 -122 224 -227 224 -232 0 -6 16
-23 35 -37 40 -31 43 -41 15 -56 -21 -11 -26 -9 -115 45 -22 13 -53 27 -70 31
-16 3 -45 20 -63 36 -34 29 -58 31 -90 5 -13 -11 21 -56 109 -145 26 -26 50
-57 54 -70 4 -13 20 -31 36 -41 37 -23 28 -31 -32 -31 -37 0 -51 4 -58 18 -6
11 -38 29 -73 42 -35 12 -83 35 -108 52 -24 16 -68 36 -96 44 -29 8 -65 26
-80 40 -26 22 -108 54 -139 54 -6 0 -26 13 -44 29 -41 37 -134 52 -160 27 -12
-12 -13 -21 -5 -33 11 -18 16 -21 77 -47 21 -9 50 -29 63 -45 13 -16 41 -36
61 -44 21 -8 47 -25 58 -37 11 -12 45 -35 75 -50 30 -15 64 -38 75 -50 11 -13
40 -31 64 -42 24 -10 59 -32 77 -48 18 -16 54 -38 79 -49 40 -18 44 -22 36
-43 -8 -21 -13 -23 -72 -18 -35 2 -89 5 -119 5 -48 0 -56 -3 -67 -25 -11 -21
-9 -28 9 -47 11 -12 43 -30 69 -38 40 -14 53 -25 79 -67 25 -40 29 -53 18 -59
-20 -13 -31 -11 -91 16 -30 14 -106 34 -168 45 -63 12 -137 32 -165 45 -37 18
-88 29 -179 39 -93 11 -133 20 -147 33 -16 14 -37 18 -101 18 -50 0 -82 -4
-84 -11 -5 -16 18 -23 97 -30 66 -6 69 -8 75 -36 9 -37 32 -51 129 -77 43 -12
92 -32 107 -45 15 -13 60 -31 101 -41 40 -10 100 -33 133 -51 33 -18 80 -36
105 -39 107 -16 129 -34 95 -82 -13 -19 -19 -20 -57 -11 -77 18 -338 -8 -312
-31 5 -4 48 -17 97 -29 67 -16 97 -29 128 -55 22 -19 60 -45 84 -58 25 -13 45
-27 45 -31 0 -4 -19 -12 -42 -19 -34 -9 -104 -8 -323 5 -154 9 -335 22 -403
28 -96 8 -129 8 -150 -1 l-27 -13 28 -14 c15 -8 51 -18 80 -21 39 -4 60 -13
82 -34 24 -23 49 -32 115 -45 94 -17 203 -31 325 -40 45 -4 93 -14 110 -23 17
-9 70 -32 119 -51 l90 -34 -185 -31 c-101 -17 -195 -37 -208 -44 l-25 -14 25
-12 c13 -7 71 -20 129 -29 164 -25 211 -37 207 -49 -2 -6 -30 -26 -64 -44 -71
-39 -151 -55 -402 -78 -95 -8 -188 -22 -207 -30 -37 -15 -45 -43 -18 -66 23
-19 300 -31 447 -19 157 12 177 2 140 -75 -14 -29 -32 -43 -100 -76 l-82 -41
34 -46 c31 -40 34 -47 20 -61 -8 -9 -21 -33 -30 -54 -10 -24 -26 -41 -48 -51
-17 -7 -43 -25 -56 -39 -24 -27 -83 -50 -156 -62 -64 -11 -105 -34 -105 -60 0
-28 -31 -42 -128 -57 -75 -12 -76 -12 -37 -19 100 -19 175 -5 175 32 0 15 144
11 165 -4 29 -22 15 -92 -25 -130 -18 -17 -39 -46 -47 -66 -9 -20 -28 -50 -42
-67 -15 -17 -33 -52 -41 -78 -8 -30 -23 -54 -41 -67 -20 -14 -34 -38 -48 -84
-13 -45 -28 -72 -50 -90 -17 -15 -35 -43 -41 -65 -6 -22 -21 -52 -34 -67 -50
-60 -58 -99 -28 -126 17 -15 64 -17 464 -17 418 0 446 -1 461 -18 24 -26 21
-38 -14 -64 -17 -13 -37 -37 -44 -55 -7 -17 -26 -37 -41 -45 -38 -18 -48 -38
-35 -70 l10 -27 55 28 c31 15 65 40 76 54 12 15 28 27 37 27 9 0 30 15 48 34
17 19 49 43 71 54 21 11 44 29 51 40 13 22 87 42 157 42 32 0 48 -6 64 -23 12
-13 22 -28 22 -35 0 -6 10 -17 22 -23 17 -9 28 -8 55 6 18 10 33 21 33 25 0
11 76 40 104 40 13 0 29 -6 35 -14 15 -18 -12 -93 -44 -124 -14 -13 -32 -40
-41 -60 -8 -20 -26 -48 -39 -62 -13 -14 -34 -47 -46 -74 -12 -28 -37 -64 -55
-82 -19 -17 -34 -41 -34 -53 0 -12 -14 -35 -31 -50 -47 -43 -66 -144 -29 -156
26 -8 47 9 64 49 7 17 52 71 99 120 48 49 87 93 87 98 0 7 56 75 138 164 20
22 64 73 96 112 33 40 63 72 67 72 5 0 16 -11 25 -24 13 -21 14 -33 4 -80 -6
-31 -21 -65 -35 -81 -31 -33 -38 -60 -27 -110 12 -59 40 -54 72 13 15 32 37
60 57 72 18 10 41 37 53 60 18 36 24 40 48 34 39 -9 49 -21 35 -43 -7 -11 -17
-50 -23 -88 -8 -46 -21 -82 -41 -110 -17 -24 -36 -71 -45 -112 -9 -40 -29 -91
-46 -117 -25 -37 -33 -62 -41 -135 -6 -59 -14 -89 -22 -89 -22 0 -36 -27 -42
-82 -3 -39 -1 -58 11 -73 15 -19 16 -19 30 -2 8 11 18 48 21 83 7 57 10 64 29
64 32 0 64 38 81 96 8 28 26 61 40 74 14 13 34 52 45 88 11 36 34 80 50 98 16
19 33 47 36 62 10 38 30 77 57 106 13 14 29 43 36 65 14 47 26 58 48 40 13
-12 15 -31 11 -126 -6 -124 3 -153 46 -153 30 0 50 31 70 105 8 32 18 61 23
66 10 10 93 -1 93 -13 0 -4 -9 -43 -21 -86 -20 -73 -30 -154 -45 -372 -5 -67
-13 -107 -28 -135 -17 -33 -21 -57 -20 -140 0 -64 6 -112 15 -134 l15 -34 28
114 c16 63 36 125 46 139 36 53 50 91 65 186 9 54 27 124 41 154 14 30 37 109
50 174 13 66 26 121 29 124 10 10 35 -22 45 -57 6 -20 15 -79 20 -132 13 -133
16 -139 50 -87 15 24 39 54 53 67 24 22 45 72 76 189 13 45 26 54 36 23 9 -29
24 -265 25 -386 0 -60 7 -155 16 -210 8 -55 15 -154 15 -220 -1 -215 24 -247
38 -49 7 101 9 106 42 140 l34 35 1 147 c0 81 6 174 12 207 6 33 16 121 22
195 7 95 14 138 25 149 23 24 33 4 45 -94 27 -209 94 -236 119 -50 18 127 21
145 29 145 4 0 28 -20 53 -43 43 -41 46 -48 58 -123 19 -121 30 -162 56 -215
15 -28 31 -88 40 -146 18 -114 41 -183 61 -183 8 0 24 10 35 21 21 21 22 27
15 192 -6 132 -13 191 -32 266 -45 174 -52 217 -42 266 11 50 23 58 32 21 3
-13 26 -46 51 -73 29 -31 50 -66 60 -98 8 -27 23 -60 33 -73 15 -20 20 -21 36
-9 33 24 41 123 21 253 -5 26 -1 33 21 43 32 14 37 9 58 -64 9 -29 28 -63 45
-79 18 -17 37 -51 46 -81 8 -28 28 -69 44 -89 17 -21 37 -62 46 -92 8 -30 28
-67 44 -83 16 -16 35 -47 41 -68 14 -42 47 -93 60 -93 23 0 40 34 40 79 0 57
-15 105 -45 146 -12 17 -29 65 -38 109 -10 47 -24 88 -36 100 -25 26 -44 80
-61 168 -8 45 -19 73 -35 88 -15 14 -21 28 -17 45 5 29 10 30 36 10 11 -8 28
-15 38 -15 10 0 33 -23 55 -57 24 -37 50 -63 71 -73 23 -10 35 -23 39 -42 8
-40 30 -56 50 -36 13 14 13 22 3 54 -7 22 -21 50 -31 63 -11 13 -19 36 -19 52
0 16 -7 48 -15 73 -17 51 -13 72 18 80 16 4 28 -1 45 -22 12 -15 43 -48 67
-74 25 -26 45 -50 45 -55 0 -5 15 -25 33 -44 17 -20 42 -47 54 -61 11 -14 27
-30 35 -34 7 -5 28 -32 46 -59 17 -28 42 -60 54 -72 13 -11 31 -34 40 -52 9
-17 33 -41 53 -52 19 -12 35 -26 35 -33 0 -21 46 -57 63 -50 38 14 30 52 -29
133 -13 19 -27 46 -31 60 -3 14 -23 45 -44 68 -22 24 -39 49 -39 57 0 9 -14
31 -30 50 -17 18 -41 58 -54 87 -13 30 -35 64 -49 75 -13 12 -33 46 -42 75
-17 50 -17 53 1 66 28 21 51 16 129 -27 40 -22 77 -40 83 -40 7 0 19 15 28 33
23 43 42 56 86 57 76 0 136 -20 179 -61 22 -21 44 -39 48 -39 4 0 26 -18 49
-40 22 -22 47 -40 55 -40 8 0 26 -15 40 -34 18 -22 38 -36 61 -40 21 -4 42
-17 54 -33 13 -18 24 -24 37 -20 12 5 14 11 7 20 -5 6 -12 28 -16 48 -4 25
-14 39 -31 47 -13 6 -36 29 -50 52 -14 22 -29 40 -33 40 -5 0 -19 14 -32 32
l-23 31 23 19 c21 17 50 18 429 18 411 1 481 5 508 33 14 14 13 19 -10 49 -14
18 -35 57 -46 87 -11 30 -33 68 -49 85 -16 17 -36 52 -46 78 -9 25 -28 57 -41
71 -14 13 -32 43 -40 67 -8 23 -31 60 -49 81 -20 21 -38 54 -42 74 -4 22 -20
50 -39 69 -20 20 -39 54 -49 87 -15 53 -15 54 5 72 16 12 39 17 90 17 l69 0 0
30 c0 36 -23 49 -130 75 -44 10 -87 27 -104 42 -15 13 -43 30 -62 38 -19 8
-40 27 -50 47 -9 18 -28 42 -42 54 -23 19 -25 24 -14 50 7 16 27 37 45 48 l32
18 -82 41 c-77 38 -84 44 -98 86 -19 57 -19 56 8 68 15 7 62 7 142 1 125 -10
402 4 435 22 10 5 20 18 23 29 4 16 -2 22 -27 30 -55 17 -137 30 -271 41 -155
14 -265 38 -360 78 -104 45 -99 53 45 72 196 26 265 48 230 71 -8 5 -24 11
-35 13 -114 23 -304 56 -317 56 -36 0 -17 18 26 24 29 5 57 19 85 43 l42 35
157 14 c86 8 195 23 242 34 47 11 93 20 103 20 10 0 29 12 42 26 25 27 75 43
135 44 19 0 44 7 54 15 18 14 18 15 -10 26 -22 9 -62 9 -164 0 -216 -19 -539
-40 -621 -40 -74 -1 -139 13 -139 29 0 4 25 19 55 34 30 14 63 34 74 45 35 35
65 49 129 61 35 6 76 16 90 21 l27 11 -30 16 c-24 13 -60 17 -184 17 -150 1
-154 1 -173 25 -18 22 -18 25 -3 36 9 7 46 17 83 24 37 7 94 27 127 45 33 18
93 40 132 50 44 10 87 28 108 45 19 15 64 35 101 44 97 25 124 41 124 75 0 27
2 28 63 34 34 3 76 11 92 17 l30 12 -25 10 c-14 5 -52 8 -84 6 -47 -4 -63 -9
-74 -26 -12 -19 -24 -22 -76 -22 -95 -1 -195 -18 -253 -45 -30 -13 -106 -33
-171 -45 -64 -12 -139 -31 -165 -44 -49 -23 -107 -25 -88 -2 5 6 13 27 18 46
9 35 27 49 121 88 33 14 49 48 38 78 -5 14 -20 15 -117 9 -97 -6 -112 -5 -129
10 -25 22 -19 31 36 57 25 11 49 29 55 40 6 11 38 32 72 47 34 16 71 38 82 50
11 13 35 29 55 37 19 8 49 28 65 43 17 16 53 39 81 51 28 12 57 31 63 43 7 12
41 37 76 55 57 30 63 36 56 55 -7 18 -17 23 -59 25 -46 3 -55 0 -89 -32 -23
-21 -54 -37 -78 -41 -47 -9 -115 -41 -115 -55 0 -5 -31 -18 -70 -30 -38 -11
-82 -31 -97 -44 -16 -13 -57 -34 -93 -45 -35 -12 -73 -30 -85 -41 -23 -22 -86
-50 -112 -50 -10 0 -29 7 -41 16 l-22 15 57 65 c32 35 73 73 91 84 34 21 39
36 20 63 -20 26 -120 9 -156 -26 -29 -28 -48 -33 -69 -19 -19 12 17 99 49 120
13 9 51 46 84 81 32 35 70 73 83 85 13 11 31 29 40 39 9 10 69 73 135 140 141
145 153 161 136 182 -23 27 -66 18 -96 -20 -14 -19 -32 -35 -40 -35 -7 0 -36
-19 -63 -42 -111 -94 -238 -193 -276 -216 -16 -9 -45 -34 -65 -54 -19 -21 -42
-38 -49 -38 -8 0 -29 -16 -47 -36 -48 -50 -70 -41 -66 25 3 43 9 54 38 76 22
17 37 40 44 66 6 22 19 47 30 56 29 25 14 43 -38 43 -41 0 -51 -5 -82 -37 -20
-21 -58 -55 -84 -75 -39 -30 -52 -36 -67 -27 -10 5 -19 17 -19 27 1 24 37 102
48 102 5 0 22 25 38 56 15 30 35 59 45 64 9 5 26 33 39 62 12 29 37 69 55 89
18 20 36 47 40 60 4 13 22 38 39 55 20 19 36 49 45 83 7 29 19 55 27 58 23 8
56 71 49 92 -11 35 -38 35 -68 -1 -37 -43 -37 -44 -74 -74 -18 -14 -33 -31
-33 -38 0 -7 -17 -30 -37 -53 -62 -66 -128 -146 -149 -178 -18 -28 -35 -48
-128 -145 -18 -19 -42 -50 -52 -67 -27 -49 -93 -42 -81 8 29 119 40 155 48
165 21 26 39 96 29 115 -15 28 -28 23 -47 -16 -11 -24 -27 -38 -50 -46 -28 -9
-40 -23 -65 -74 -27 -53 -36 -64 -62 -68 -17 -3 -38 -8 -47 -12 -29 -11 -32
25 -5 64 14 20 34 71 45 114 10 43 31 96 45 118 15 22 33 72 42 115 10 50 26
91 46 119 41 59 51 157 19 195 l-21 25 -25 -30 c-14 -16 -28 -45 -31 -64 -4
-19 -21 -49 -39 -67 -18 -18 -41 -56 -50 -86 -10 -29 -31 -68 -46 -85 -16 -18
-33 -52 -39 -75 -16 -68 -33 -92 -80 -115 -63 -30 -74 -17 -78 90 -2 45 -8 87
-13 93 -5 6 -26 16 -48 22 -22 7 -53 28 -74 51 -32 35 -36 46 -41 112 -3 41
-5 123 -3 182 2 97 0 110 -17 123 -29 21 -33 19 -66 -40 -32 -55 -56 -74 -73
-57 -6 6 -18 34 -28 62 -11 29 -32 65 -49 80 -16 16 -30 35 -30 44 0 23 -34
87 -59 109 -12 11 -26 37 -32 59 -6 21 -26 54 -44 73 -20 19 -39 52 -45 76 -7
24 -25 57 -42 75 -17 18 -40 55 -52 84 -22 56 -52 84 -103 98 -29 8 -35 6 -52
-15z m109 -202 c15 -11 32 -41 43 -73 10 -30 28 -63 42 -74 13 -11 33 -45 44
-76 12 -30 35 -68 51 -84 17 -16 30 -35 30 -42 0 -21 36 -86 59 -107 11 -10
27 -40 36 -66 9 -26 25 -56 37 -66 11 -11 32 -43 45 -72 13 -30 36 -70 52 -90
16 -21 34 -54 41 -75 6 -21 26 -52 44 -70 18 -18 40 -53 50 -79 9 -25 24 -52
32 -59 8 -7 30 -45 49 -86 18 -40 38 -73 44 -73 6 0 25 -30 41 -67 17 -37 39
-77 50 -88 10 -11 27 -40 38 -65 11 -25 27 -52 37 -60 10 -8 31 -44 47 -80 16
-36 40 -76 52 -90 13 -14 31 -45 40 -70 10 -25 28 -56 41 -70 13 -14 35 -50
48 -81 14 -31 30 -60 36 -63 6 -4 27 -38 46 -76 19 -38 39 -71 45 -75 6 -4 26
-40 46 -81 19 -41 39 -74 44 -74 5 0 21 -26 35 -57 15 -32 38 -72 51 -89 13
-17 35 -57 50 -88 14 -31 30 -56 35 -56 5 0 24 -33 43 -72 18 -40 41 -80 50
-88 10 -8 29 -39 43 -69 13 -31 33 -65 43 -76 10 -11 30 -45 43 -76 14 -30 33
-61 42 -69 10 -8 30 -42 45 -75 15 -33 37 -68 48 -79 12 -10 28 -39 37 -65 8
-25 31 -66 50 -90 19 -24 35 -49 35 -56 0 -7 15 -35 34 -62 19 -27 45 -72 60
-100 14 -28 32 -58 41 -67 9 -8 27 -41 41 -73 14 -32 38 -71 54 -88 15 -16 33
-47 40 -68 6 -21 23 -51 36 -66 13 -16 34 -51 46 -78 11 -26 35 -64 52 -85 17
-20 39 -59 49 -87 10 -28 26 -55 37 -61 10 -5 26 -33 35 -61 10 -29 32 -68 50
-88 18 -20 38 -53 45 -75 7 -21 27 -55 45 -75 18 -20 38 -54 44 -77 6 -22 24
-53 40 -68 16 -15 39 -54 50 -86 12 -33 31 -64 45 -73 13 -9 27 -28 31 -44 3
-15 22 -52 41 -83 35 -56 44 -103 22 -116 -17 -11 -5867 -5 -5886 5 -12 7 -15
22 -13 58 2 39 8 54 36 81 19 18 36 45 40 61 3 15 24 51 45 80 22 29 44 70 50
91 6 21 21 45 34 54 14 9 33 40 46 72 11 31 34 69 49 84 17 15 34 46 41 71 6
24 25 58 40 74 16 17 38 53 50 80 12 28 30 59 40 70 11 11 29 43 41 70 12 28
34 64 49 80 15 17 37 55 49 85 13 30 33 66 46 80 12 14 28 41 34 60 6 19 26
53 45 75 19 21 39 56 45 76 6 21 27 56 45 78 19 23 40 58 46 79 7 20 23 48 35
62 13 14 37 53 54 87 17 34 36 65 42 69 6 3 22 32 36 62 13 31 36 70 50 86 14
17 34 51 45 76 11 25 28 54 38 65 10 11 31 47 46 80 15 33 40 75 56 93 15 18
28 39 28 47 0 7 20 43 44 78 24 35 47 75 51 88 4 13 20 41 37 62 16 20 40 61
53 90 12 29 31 59 40 67 9 8 27 37 40 65 12 27 39 74 59 104 20 29 36 59 36
67 0 7 13 29 30 47 16 19 43 64 59 99 16 36 34 67 39 69 5 2 26 36 46 76 19
39 41 75 47 79 6 3 21 30 34 58 13 28 37 68 53 89 17 21 36 55 43 75 6 20 24
51 39 67 15 17 35 50 44 74 10 25 30 60 46 78 16 18 34 50 39 71 6 21 23 49
37 63 15 13 38 48 51 78 13 30 35 67 47 82 13 15 29 48 36 73 8 30 23 54 40
66 15 11 37 43 50 71 12 29 37 74 55 101 18 26 36 61 40 76 3 16 19 38 34 50
18 13 33 37 41 68 8 27 29 65 47 85 18 20 40 55 48 78 8 23 30 60 49 82 19 22
37 55 40 73 3 18 20 45 36 61 16 15 37 51 46 79 9 28 19 55 22 60 7 13 73 -1
102 -22z"/>
<path d="M3437 6413 c-9 -10 -24 -37 -33 -58 -9 -22 -27 -55 -41 -73 -13 -18
-35 -56 -48 -85 -12 -29 -31 -59 -41 -67 -9 -8 -28 -39 -41 -69 -14 -30 -35
-68 -48 -83 -14 -16 -33 -48 -43 -71 -11 -23 -36 -66 -56 -96 -20 -29 -36 -59
-36 -66 0 -7 -15 -31 -33 -53 -18 -22 -41 -61 -51 -88 -10 -27 -29 -60 -41
-74 -12 -14 -35 -50 -49 -80 -15 -30 -36 -64 -46 -75 -9 -11 -27 -42 -39 -70
-12 -27 -30 -59 -41 -70 -10 -11 -30 -45 -44 -76 -15 -31 -35 -64 -45 -73 -11
-10 -29 -41 -41 -69 -13 -29 -34 -65 -48 -82 -13 -16 -33 -50 -44 -75 -11 -25
-28 -54 -38 -65 -10 -11 -33 -50 -50 -87 -18 -38 -36 -68 -40 -68 -5 0 -24
-33 -43 -73 -19 -40 -42 -78 -50 -86 -9 -7 -28 -38 -42 -69 -15 -32 -35 -66
-45 -77 -10 -11 -28 -42 -40 -70 -12 -27 -32 -61 -45 -75 -13 -14 -31 -45 -41
-70 -9 -25 -27 -56 -39 -70 -13 -14 -35 -50 -50 -80 -15 -30 -38 -68 -50 -85
-13 -16 -30 -48 -39 -70 -10 -22 -25 -49 -35 -60 -11 -11 -33 -49 -51 -84 -18
-36 -39 -71 -48 -80 -8 -9 -26 -40 -39 -70 -14 -31 -38 -70 -54 -88 -16 -19
-29 -40 -29 -47 0 -8 -16 -38 -36 -67 -20 -30 -47 -77 -59 -104 -13 -28 -31
-57 -41 -65 -9 -8 -28 -39 -41 -69 -14 -30 -35 -68 -48 -83 -14 -16 -33 -48
-43 -71 -11 -23 -36 -66 -56 -96 -20 -29 -36 -59 -36 -67 0 -7 -13 -28 -29
-47 -16 -18 -41 -60 -56 -92 -14 -33 -34 -69 -44 -80 -11 -11 -33 -48 -50 -82
-17 -34 -35 -65 -41 -68 -6 -4 -22 -32 -36 -63 -14 -32 -36 -68 -49 -82 -13
-14 -31 -45 -41 -70 -9 -25 -27 -56 -40 -70 -12 -14 -33 -47 -46 -75 -13 -27
-38 -70 -56 -94 -38 -53 -39 -65 -7 -97 l24 -24 2665 2 c2604 3 2664 3 2685
22 28 25 27 40 -8 84 -17 20 -33 50 -37 65 -4 16 -22 49 -41 74 -19 25 -43 65
-53 88 -10 24 -23 46 -29 50 -7 3 -29 42 -51 85 -22 43 -45 82 -51 86 -6 3
-22 32 -36 62 -13 31 -36 70 -50 86 -14 17 -34 51 -45 76 -11 25 -28 54 -38
65 -11 11 -30 45 -43 76 -14 30 -32 61 -42 69 -9 7 -32 47 -51 87 -19 40 -39
73 -44 73 -5 0 -20 24 -34 53 -13 29 -41 77 -60 106 -20 29 -36 59 -36 66 0 8
-12 27 -26 44 -14 17 -40 61 -58 98 -19 38 -43 76 -54 87 -12 10 -27 35 -33
55 -6 20 -26 56 -44 81 -18 25 -40 63 -49 85 -9 22 -25 49 -35 60 -11 11 -33
48 -50 82 -17 34 -35 64 -41 68 -6 4 -26 40 -46 81 -19 41 -39 74 -44 74 -5 0
-21 26 -36 58 -15 31 -37 71 -50 87 -12 17 -34 56 -49 88 -15 31 -31 57 -36
57 -5 0 -24 33 -43 73 -18 39 -41 79 -50 87 -10 8 -29 39 -43 69 -13 31 -33
65 -43 76 -10 11 -30 45 -43 76 -14 30 -32 61 -41 68 -8 7 -27 37 -40 67 -14
29 -38 71 -55 91 -16 21 -33 51 -37 66 -4 16 -22 49 -40 73 -19 24 -41 61 -49
81 -9 21 -24 47 -34 58 -11 11 -35 53 -55 93 -20 39 -40 72 -45 72 -5 0 -21
28 -35 63 -15 34 -38 73 -51 87 -13 14 -33 48 -45 75 -12 28 -30 59 -40 70
-10 11 -30 45 -45 77 -14 31 -33 62 -41 69 -9 7 -31 46 -50 86 -19 40 -39 73
-43 73 -5 0 -21 25 -35 56 -15 31 -38 71 -51 88 -13 18 -32 49 -40 71 -9 21
-29 54 -44 74 -15 20 -36 56 -46 81 -29 71 -49 88 -118 105 -15 4 -29 0 -40
-12z m66 -575 c37 -11 43 -18 73 -83 18 -40 41 -78 50 -86 9 -7 27 -37 40 -67
13 -30 34 -66 47 -82 13 -15 30 -43 37 -61 7 -19 28 -54 46 -79 17 -25 39 -63
48 -85 9 -22 25 -49 35 -60 11 -11 35 -52 55 -92 19 -39 41 -75 47 -78 6 -4
23 -35 38 -69 16 -33 36 -68 46 -76 9 -8 28 -39 42 -69 13 -31 33 -65 43 -76
10 -11 30 -45 43 -76 14 -30 33 -61 42 -69 9 -8 28 -38 40 -67 13 -29 37 -70
53 -90 17 -21 33 -49 37 -62 4 -13 27 -53 51 -88 24 -35 44 -71 44 -78 0 -8
13 -29 28 -47 16 -18 43 -63 60 -100 17 -38 36 -68 41 -68 6 0 17 -13 26 -29
11 -23 12 -36 4 -60 -6 -17 -13 -31 -15 -31 -2 0 -20 11 -40 25 -20 14 -42 25
-49 25 -6 0 -20 9 -31 21 -10 12 -48 37 -84 56 -36 19 -85 45 -110 59 -25 13
-65 33 -90 44 -25 11 -58 28 -75 37 -16 9 -63 25 -105 35 -41 11 -102 30 -135
43 -88 35 -250 49 -474 42 -178 -6 -308 -24 -335 -46 -7 -6 -57 -22 -110 -37
-54 -14 -132 -43 -173 -65 -40 -21 -80 -39 -88 -39 -7 0 -27 -11 -43 -25 -17
-14 -54 -36 -84 -49 -30 -13 -60 -31 -67 -39 -18 -22 -96 -67 -115 -67 -9 0
-21 11 -27 24 -12 26 4 68 47 119 13 15 33 49 44 75 12 26 29 56 40 67 10 11
30 45 45 77 14 31 33 62 42 69 8 8 30 46 48 85 18 39 38 75 44 78 6 4 23 31
38 59 14 29 36 66 49 82 12 17 33 55 47 85 13 30 32 62 42 70 10 8 30 43 46
76 15 34 32 65 38 69 6 3 27 37 46 75 19 38 40 72 46 75 6 4 23 35 39 69 15
33 37 69 48 79 11 11 29 41 38 68 10 26 29 61 42 76 14 15 35 51 47 79 13 27
34 63 48 80 14 16 32 46 41 67 9 22 27 52 40 67 13 16 32 51 42 77 17 48 32
73 42 73 2 0 23 -5 45 -12z m286 -1823 c41 -8 95 -25 120 -38 25 -13 77 -34
114 -47 37 -12 73 -28 80 -36 31 -38 42 -45 98 -65 77 -28 65 -43 -34 -43 -55
0 -82 5 -114 21 -51 27 -120 40 -287 53 -322 25 -727 0 -826 -51 -41 -21 -126
-27 -167 -12 -20 7 -14 11 43 32 46 16 69 30 76 47 10 21 96 64 129 64 5 0 36
13 67 30 101 52 234 71 467 64 88 -2 193 -11 234 -19z m-1457 -120 c0 -5 -5
-11 -11 -13 -6 -2 -11 4 -11 13 0 9 5 15 11 13 6 -2 11 -8 11 -13z m870 -253
c8 -8 3 -29 -17 -73 -23 -52 -27 -72 -23 -128 3 -54 9 -74 28 -98 14 -17 32
-44 42 -61 9 -17 34 -42 55 -56 21 -14 49 -35 63 -46 63 -51 252 -49 309 3 14
13 42 33 61 45 25 15 46 42 73 96 45 89 49 135 17 229 -12 36 -20 72 -17 80 7
19 92 30 116 15 29 -18 61 -98 61 -152 0 -60 -36 -218 -61 -268 -10 -20 -27
-43 -37 -50 -10 -7 -29 -28 -43 -47 -17 -24 -54 -48 -129 -85 -104 -50 -106
-51 -200 -51 -95 0 -95 0 -202 53 -82 42 -113 63 -133 92 -15 21 -33 41 -40
44 -18 7 -47 63 -80 157 -36 101 -36 177 2 245 15 27 34 55 43 62 17 14 96 10
112 -6z m-408 -82 c23 -8 26 -15 27 -57 1 -103 62 -319 102 -361 13 -15 32
-40 40 -57 38 -71 194 -187 292 -216 55 -16 74 -27 86 -48 21 -35 49 -41 200
-41 94 0 119 -3 119 -14 0 -10 -25 -15 -94 -20 -120 -9 -239 1 -296 24 -25 10
-72 21 -105 25 -91 10 -146 25 -193 52 -24 13 -68 33 -99 44 -32 11 -80 35
-107 53 -28 19 -62 37 -76 41 -14 4 -41 19 -60 34 -33 25 -107 76 -178 124
-19 12 -55 40 -82 62 -27 22 -60 48 -75 58 -23 16 -26 25 -23 65 l3 47 81 26
c44 15 101 38 125 52 24 14 70 32 101 40 32 8 81 29 110 46 59 34 65 35 102
21z m1621 -69 c28 -7 73 -25 102 -41 28 -16 73 -35 100 -41 26 -7 61 -18 77
-26 24 -13 27 -19 22 -45 -3 -17 -6 -37 -6 -44 0 -8 -22 -28 -50 -45 -27 -17
-53 -36 -57 -43 -5 -7 -28 -26 -53 -43 -25 -17 -61 -45 -80 -62 -19 -17 -40
-31 -47 -31 -7 0 -28 -14 -48 -31 -20 -18 -63 -45 -96 -60 -34 -16 -72 -38
-86 -48 -13 -11 -48 -27 -76 -37 -29 -9 -70 -26 -92 -39 -58 -33 -101 -44
-215 -59 -123 -16 -140 -13 -140 23 0 25 5 29 81 51 86 24 107 39 206 138 45
46 71 86 140 214 8 15 23 80 34 145 28 169 33 179 77 191 32 8 44 5 97 -23 33
-18 83 -38 110 -44z m-2474 -340 c24 -5 59 -31 110 -81 41 -39 99 -89 129
-110 31 -21 62 -45 70 -55 7 -9 30 -25 50 -35 20 -10 42 -26 50 -35 8 -9 32
-26 54 -37 23 -11 55 -32 71 -46 17 -14 57 -37 90 -52 33 -15 66 -34 74 -43 7
-10 43 -26 79 -37 37 -12 85 -32 107 -45 23 -13 86 -35 141 -49 54 -14 122
-34 150 -45 137 -53 611 -53 749 0 28 11 95 31 149 45 55 14 118 36 140 49 23
12 64 30 93 40 29 9 69 28 90 42 21 14 61 36 88 48 28 13 57 30 65 40 7 9 37
28 64 42 28 14 69 41 90 59 22 19 44 34 49 34 5 0 29 17 53 38 23 20 71 60
106 87 34 28 89 74 120 104 l58 54 45 -13 c52 -14 55 -18 80 -84 9 -26 30 -63
46 -81 16 -18 34 -48 40 -67 6 -18 25 -50 41 -71 16 -21 38 -57 49 -82 11 -24
30 -57 43 -72 13 -15 32 -49 44 -75 11 -26 34 -64 50 -85 17 -21 33 -49 37
-62 4 -13 27 -53 51 -88 24 -35 44 -71 44 -78 0 -8 13 -29 29 -47 16 -18 35
-53 42 -77 12 -40 11 -45 -6 -57 -16 -12 -351 -14 -2177 -12 -2429 3 -2199 -5
-2171 83 9 28 28 64 43 80 15 17 40 58 55 93 15 34 31 62 35 62 4 0 18 21 31
48 13 26 38 67 55 92 18 25 39 63 48 85 9 22 25 49 36 60 10 11 33 50 50 87
17 37 38 72 47 79 8 7 26 38 40 68 13 31 33 65 43 76 10 11 26 38 36 60 18 45
42 75 58 75 6 0 27 -4 47 -9z"/>
<path d="M4142 6456 c-7 -19 -15 -63 -19 -99 -5 -58 -4 -66 15 -76 18 -9 21
-7 31 21 15 42 13 138 -2 166 -13 22 -13 22 -25 -12z"/>
<path d="M4751 6212 c-16 -47 -11 -86 10 -90 25 -5 39 39 27 87 -6 22 -14 41
-18 41 -4 0 -12 -17 -19 -38z"/>
<path d="M1593 5924 c-3 -8 0 -27 6 -40 14 -31 45 -28 49 4 6 41 -41 72 -55
36z"/>
<path d="M5366 5924 c-9 -25 -7 -34 8 -34 19 0 28 14 20 34 -8 20 -20 20 -28
0z"/>
<path d="M5970 5560 c-12 -8 -9 -10 13 -10 16 0 26 4 22 10 -8 12 -16 12 -35
0z"/>
<path d="M1085 5480 c-10 -16 3 -29 25 -23 16 4 18 8 9 19 -14 17 -25 18 -34
4z"/>
<path d="M5814 5469 c-9 -16 2 -22 21 -11 15 8 16 10 1 15 -8 3 -18 2 -22 -4z"/>
<path d="M712 4952 c-9 -6 -6 -11 11 -19 30 -14 61 1 37 17 -18 12 -31 12 -48
2z"/>
<path d="M6220 4950 c-13 -9 -13 -11 0 -20 20 -13 37 -12 62 1 17 9 18 13 7
20 -19 12 -50 11 -69 -1z"/>
<path d="M1090 4420 c0 -5 17 -10 38 -9 33 1 34 2 12 9 -36 11 -50 11 -50 0z"/>
<path d="M5797 4423 c-13 -13 -7 -33 11 -33 21 1 54 25 45 33 -8 9 -48 9 -56
0z"/>
<path d="M6384 2425 c-10 -26 13 -35 91 -34 98 1 125 13 60 27 -114 24 -144
25 -151 7z"/>
<path d="M1090 1270 c0 -5 7 -10 16 -10 8 0 12 5 9 10 -3 6 -10 10 -16 10 -5
0 -9 -4 -9 -10z"/>
<path d="M2660 931 c0 -12 5 -21 10 -21 6 0 10 6 10 14 0 8 -4 18 -10 21 -5 3
-10 -3 -10 -14z"/>
<path d="M1602 849 c-10 -16 -11 -24 -1 -35 10 -13 14 -12 29 1 19 17 16 55
-4 55 -6 0 -17 -9 -24 -21z"/>
<path d="M5360 836 c0 -7 6 -19 14 -25 11 -9 15 -8 20 5 3 9 4 20 0 25 -8 14
-34 11 -34 -5z"/>
<path d="M4747 623 c-16 -16 5 -143 23 -143 4 0 13 20 20 44 10 37 9 48 -4 75
-16 31 -27 37 -39 24z"/>
<path d="M4141 446 c-17 -20 -16 -109 2 -161 l14 -39 11 34 c15 42 15 117 -1
154 -11 26 -14 27 -26 12z"/>
</g>
</svg>
